<svg xmlns="http://www.w3.org/2000/svg" xmlns:xlink="http://www.w3.org/1999/xlink" width="356" height="290" viewBox="0 0 356 290">
    <defs>
        <path id="49b9shau4a" d="M0 0.378L333.788 0.378 333.788 13.728 0 13.728z"/>
        <path id="15l4tsiguc" d="M22.706 1.002C15.938 2.07 10.249 4.296 4.33 11.374c-5.918 7.078-4.825 17.442-2.237 23.267 2.66 5.985 8.024 12.826 12.634 17.467 3.848-1.44 5.818-11.446 7.106-16.338 2.549-4.13 6.958-1.65 8.685-4.927.68-1.291.883-3.436.956-5.841 7.317 3.387 23.472 2.441 26.61-9.04-1.527 2.716-5.79 4.507-5.79 4.507s8.909-6.854.381-12.72c2.418 6.175-1.082 9.2-1.082 9.2s.382-2.1-1.146-3.89c-.123 3.237-2.1 2.84-5.046-.937-2.947-3.775-4.001-6.046-7.74-8.213C34.46 2.054 31.247.665 26.75.665c-1.242 0-2.58.106-4.044.337"/>
        <path id="vxxl7qj1kf" d="M.597.792S-.73 6.512 3.002 6.361C6.734 6.21 6.405 1.427 6.285.098 4.579.198.597.792.597.792"/>
        <path id="oza0do1r8i" d="M2.16 2.56C5.859 2.595 7.534.825 5.442.647 5.156.622 4.874.61 4.6.61 1.043.61-1.275 2.53 2.16 2.56"/>
        <path id="d2o415ncol" d="M0.569 0.86L50.96 0.86 50.96 51.915 0.569 51.915z"/>
        <linearGradient id="cnoxe1hgid" x1="0%" x2="99.999%" y1="49.999%" y2="49.999%">
            <stop offset="0%"/>
            <stop offset="100%" stop-color="#78605D"/>
        </linearGradient>
        <linearGradient id="ejp7fhr98g" x1="49.18%" x2="52.218%" y1="8.463%" y2="96.554%">
            <stop offset="0%" stop-color="#C99169"/>
            <stop offset="100%" stop-color="#C99169"/>
        </linearGradient>
        <linearGradient id="7zmk2sdw1j" x1="4.473%" x2="95.579%" y1="45.273%" y2="54.552%">
            <stop offset="0%" stop-color="#4F3025"/>
            <stop offset="100%" stop-color="#3B211D"/>
        </linearGradient>
    </defs>
    <g fill="none" fill-rule="evenodd" transform="matrix(-1 0 0 1 356 0)">
        <rect width="355" height="220" x=".379" y="70" fill="#FCF4E8" rx="10"/>
        <g>
            <g>
                <g transform="matrix(-1 0 0 1 344.379 0) translate(0 3.868) translate(0 271.011)">
                    <mask id="5i3f0pepkb" fill="#fff">
                        <use xlink:href="#49b9shau4a"/>
                    </mask>
                    <path fill="#181822" d="M333.788 7.053c0 3.687-74.721 6.676-166.894 6.676S0 10.739 0 7.053 74.721.378 166.894.378s166.894 2.989 166.894 6.675" mask="url(#5i3f0pepkb)" opacity=".16"/>
                </g>
                <path fill="#5B1321" d="M56.2 182.762L55.097 184.269 26.104 163.078 27.207 161.57z" transform="matrix(-1 0 0 1 344.379 0) translate(0 3.868)"/>
                <path fill="#474746" d="M309.907 241.204c0 20.839-16.894 37.732-37.735 37.732-20.84 0-37.734-16.893-37.734-37.732s16.895-37.732 37.734-37.732c20.84 0 37.735 16.893 37.735 37.732" transform="matrix(-1 0 0 1 344.379 0) translate(0 3.868)"/>
                <path fill="#6E6D6C" d="M304.288 241.204c0 17.735-14.379 32.112-32.116 32.112-17.736 0-32.115-14.377-32.115-32.112 0-17.736 14.379-32.112 32.115-32.112 17.737 0 32.116 14.376 32.116 32.112" transform="matrix(-1 0 0 1 344.379 0) translate(0 3.868)"/>
                <path fill="#8C8989" d="M295.758 241.204c0 13.024-10.56 23.583-23.586 23.583-13.025 0-23.584-10.56-23.584-23.583 0-13.024 10.56-23.583 23.584-23.583 13.026 0 23.586 10.559 23.586 23.583" transform="matrix(-1 0 0 1 344.379 0) translate(0 3.868)"/>
                <path fill="#474746" d="M284.042 241.204c0 6.03-4.89 10.919-10.92 10.919s-10.92-4.89-10.92-10.919c0-6.03 4.89-10.919 10.92-10.919s10.92 4.89 10.92 10.92M108.953 241.204c0 20.839-16.895 37.732-37.735 37.732s-37.735-16.893-37.735-37.732 16.894-37.732 37.735-37.732c20.84 0 37.735 16.893 37.735 37.732" transform="matrix(-1 0 0 1 344.379 0) translate(0 3.868)"/>
                <path fill="#6E6D6C" d="M103.333 241.204c0 17.735-14.379 32.112-32.115 32.112-17.737 0-32.116-14.377-32.116-32.112 0-17.736 14.379-32.112 32.116-32.112 17.736 0 32.115 14.376 32.115 32.112" transform="matrix(-1 0 0 1 344.379 0) translate(0 3.868)"/>
                <path fill="#8C8989" d="M94.802 241.204c0 13.024-10.559 23.583-23.584 23.583-13.026 0-23.585-10.56-23.585-23.583 0-13.024 10.56-23.583 23.585-23.583s23.584 10.559 23.584 23.583" transform="matrix(-1 0 0 1 344.379 0) translate(0 3.868)"/>
                <path fill="#474746" d="M82.137 241.204c0 6.03-4.888 10.919-10.92 10.919-6.03 0-10.919-4.89-10.919-10.919 0-6.03 4.889-10.919 10.92-10.919 6.03 0 10.92 4.89 10.92 10.92" transform="matrix(-1 0 0 1 344.379 0) translate(0 3.868)"/>
                <path fill="#5B1321" d="M67.979 172.232L71.282 172.232 71.282 162.565 67.979 162.565zM85.797 172.232L89.099 172.232 89.099 162.565 85.797 162.565z" transform="matrix(-1 0 0 1 344.379 0) translate(0 3.868)"/>
                <path fill="#062338" d="M106.122 141.886c4.626 7.951 4.754 16.83 31.1 18.194 25.086 1.299 34.535 5.62 44.735 4.63 7.335-.714 9.761-19.17-.333-19.91-11.532-.846-44.166-3.085-44.166-3.085l-31.336.17z" transform="matrix(-1 0 0 1 344.379 0) translate(0 3.868)"/>
                <path fill="#B08900" d="M168.015 162.435l21.061 69.138 16.577-.288s-19.181-74.547-21.142-81.698c-6.528 2.612-16.496 12.848-16.496 12.848" transform="matrix(-1 0 0 1 344.379 0) translate(0 3.868)"/>
                <path fill="#DC202F" d="M151.058 165.23s-76.86 1.451-82.419 1.693c-5.56.24-7.175 1.426-6.526 3.625.4 1.355.315 2.808-2.207 5.634-2.07 2.32-6.073 6.329-8.692 8.5-6.846 5.678 52.02 46.338 54.892 48.79 5.954 5.081 10.601 9.001 10.601 9.001s87.04.094 96.467.094c9.426 0 41.816-34.09 46.013-52.64-15.704-8.667-22.905-28.406-26.218-35.915-3.313-7.508-13.338-33.988-14.152-37.08-.814-3.094-7.652-1.141-4.722 5.534 2.931 6.674 14.328 37.932 15.956 44.77 1.628 6.837 1.954 15.79-3.42 27.024-5.372 11.232-17.42 26.7-20.026 29.629-2.604 2.93-8.466 4.72-16.28 4.72h-37.447c-6.35 0-21.392-12.035-21.98-26.535-.977-24.093 20.16-36.843 20.16-36.843" transform="matrix(-1 0 0 1 344.379 0) translate(0 3.868)"/>
                <path fill="#EE2737" d="M17.475 231.414s3.295-37.512 38.259-50.162c25.85-9.35 53.444 2.507 62.942 26.053 6.192 15.347 1.677 32.291.118 36.06-15.457 3.115-90.018-3.119-101.32-11.95" transform="matrix(-1 0 0 1 344.379 0) translate(0 3.868)"/>
                <path fill="#E50042" d="M218.77 242.34H113.65c-1.524 0-2.76 1.236-2.76 2.762 0 1.524 1.236 2.76 2.76 2.76h105.12c1.525 0 2.763-1.236 2.763-2.76 0-1.526-1.238-2.762-2.763-2.762" transform="matrix(-1 0 0 1 344.379 0) translate(0 3.868)"/>
                <path fill="#711B2E" d="M107.68 166.72c-7.534-.23-8.172-8.563-.45-8.929 7.723-.366 47.141 2.852 50.183 3.087 3.041.235 2.893 5.734-1.098 5.78-6.739.077-39.005.357-48.635.062" transform="matrix(-1 0 0 1 344.379 0) translate(0 3.868)"/>
                <path fill="#EE2737" d="M94.84 106.765H20.22c-.591 0-1.07.479-1.07 1.07v53.924H95.91v-53.924c0-.591-.479-1.07-1.07-1.07" transform="matrix(-1 0 0 1 344.379 0) translate(0 3.868)"/>
                <path fill="#DC202F" d="M19.149 115.671v46.088H95.91v-18.127c-43.165 9.507-66.476-2.695-76.762-27.96" transform="matrix(-1 0 0 1 344.379 0) translate(0 3.868)"/>
                <path stroke="#711B2E" stroke-linecap="round" stroke-width="1.932" d="M57.077 105.9L57.077 161.609" transform="matrix(-1 0 0 1 344.379 0) translate(0 3.868)"/>
                <path fill="#711B2E" d="M97.698 164.655h-81.7c-1.194 0-2.163-.969-2.163-2.162 0-1.195.97-2.163 2.163-2.163h81.7c1.194 0 2.162.968 2.162 2.163 0 1.193-.968 2.162-2.162 2.162" transform="matrix(-1 0 0 1 344.379 0) translate(0 3.868)"/>
                <path fill="#92D5F7" d="M231.756 112.465v20.069c5.184-.658 5.184-19.41 0-20.069" transform="matrix(-1 0 0 1 344.379 0) translate(0 3.868)"/>
                <path fill="#E50042" d="M221.41 122.5c0 4.806 3.376 8.813 7.882 9.813v-19.626c-4.506 1-7.881 5.006-7.881 9.812" transform="matrix(-1 0 0 1 344.379 0) translate(0 3.868)"/>
                <path fill="#A1A1A1" d="M231.478 112.433c-.752 0-1.48.097-2.186.253v19.627c.706.157 1.434.253 2.186.253.095 0 .186-.02.278-.032v-20.068c-.092-.012-.183-.033-.278-.033" transform="matrix(-1 0 0 1 344.379 0) translate(0 3.868)"/>
                <path fill="#FFF" d="M153.686 226.032s12.159 1.278 14.038 1.655c1.88.376 22.738 6.2 22.738 11.637-2.225 0-9.952.002-20.782.002-6.618 0-20.808.682-22.72-.002-.576-.206-1.76-2.05-.82-3.892 1.704-3.336 6.377-9.453 7.546-9.4" transform="matrix(-1 0 0 1 344.379 0) translate(0 3.868)"/>
                <path fill="#2F3043" d="M146.961 242.288L190.462 242.288 190.462 239.325 146.961 239.325z" transform="matrix(-1 0 0 1 344.379 0) translate(0 3.868)"/>
                <path fill="#F4A67B" d="M147.016 64.476L136.507 56.846 144.758 45.482 155.268 53.113zM169.634 111.413c3.482 1.39 16.474 6.813 36.747 6.088 2.286-.974 12.073-1.719 12.073-1.719s-1.4-2.747-5.42-3.003c-8.504-.543-13.186-1.526-19.877-2.35-8.233-1.011-14.091-3.117-18.696-5.063-3.368-1.424-9.144-5.656-9.144-5.656l-6.725 6.545s3.827 2.28 11.042 5.158" transform="matrix(-1 0 0 1 344.379 0) translate(0 3.868)"/>
                <path fill="#BC3D57" d="M128.398 61.972c4.927-2.825 10.907-.803 15.388 8.87 4.481 9.674 10.835 20.213 23.376 27-1.106 5.417-8.968 9.598-8.968 9.598s-18.776-7.98-25.13-18.586c-8.298-13.857-9.594-24.057-4.666-26.882" transform="matrix(-1 0 0 1 344.379 0) translate(0 3.868)"/>
                <path fill="#FEC500" d="M106.122 141.886c.136 8.248 4.754 16.83 31.1 18.194 25.086 1.299 40.64 1.661 50.839.67 7.336-.713 9.762-19.17-.332-19.91-11.532-.845-44.167-3.085-44.167-3.085l-37.44 4.13z" transform="matrix(-1 0 0 1 344.379 0) translate(0 3.868)"/>
                <path fill="#FEC500" d="M173.017 156.139L153.6 225.755l16.696 2.362s21.346-66.86 23.538-73.942c-6.91-1.308-20.817 1.964-20.817 1.964" transform="matrix(-1 0 0 1 344.379 0) translate(0 3.868)"/>
                <path fill="#EE2737" d="M106.122 141.886c-.02-8.796 5.047-45.895 10.014-60.905 5.033-15.21 13.907-28.412 23.686-25.526 16.018 4.725 10.593 23.337 9.724 37.02-.869 13.682-5.984 45.28-5.984 45.28s-17.258 3.914-37.44 4.13" transform="matrix(-1 0 0 1 344.379 0) translate(0 3.868)"/>
                <path fill="#FFC2A1" d="M175.624 115.685c3.361 1.525 6.655 7.8 35.03 5.49 4.233.322 10.142-1.075 10.142-1.075s-.365-7.026-6.403-6.639c-3.877.248-9.84 1.364-16.26.564-7.904-.985-13.553-3.285-17.997-5.43-3.252-1.567-8.861-6.325-8.861-6.325l-6.319 7.706s3.707 2.547 10.668 5.709" transform="matrix(-1 0 0 1 344.379 0) translate(0 3.868)"/>
                <path fill="#FF8E75" d="M135.221 59.526c4.667-3.373 10.431-1.17 14.9 9.897 4.472 11.068 10.75 23.093 22.884 30.65-.958 6.279-8.408 11.28-8.408 11.28s-18.128-8.793-24.408-20.898c-8.204-15.81-9.634-27.558-4.968-30.93" transform="matrix(-1 0 0 1 344.379 0) translate(0 3.868)"/>
                <path fill="#FFC2A1" d="M141.321 49.74s20.687 14.71 26.866 9.827c.933-.735 3.515-7.422 5.107-12.3 2.351-7.206 4.167-16.724 2.872-23.236-2.143-10.763-13.332-26.285-23.724-23.437-10.387 2.848-34.142 15.288-11.12 49.147" transform="matrix(-1 0 0 1 344.379 0) translate(0 3.868)"/>
                <path fill="#FFC2A1" d="M171.41 32.612c-.017-.013-.024-.018-.047-.031l.627-1.296c2.55 3.315 5.667 5.77 8.5 8.346-6.61 5.572-12.526-.289-10.561-7.496.61.057 1.173.313 1.48.477.346.23.296.158 0 0" transform="matrix(-1 0 0 1 344.379 0) translate(0 3.868)"/>
            </g>
            <g transform="matrix(-1 0 0 1 344.379 0) translate(123.939 1.465)">
                <mask id="3iq2p13jue" fill="#fff">
                    <use xlink:href="#15l4tsiguc"/>
                </mask>
                <path fill="url(#cnoxe1hgid)" d="M22.706 1.002C15.938 2.07 10.249 4.296 4.33 11.374c-5.918 7.078-4.825 17.442-2.237 23.267 2.66 5.985 8.024 12.826 12.634 17.467 3.848-1.44 5.818-11.446 7.106-16.338 2.549-4.13 6.958-1.65 8.685-4.927.68-1.291.883-3.436.956-5.841 7.317 3.387 23.472 2.441 26.61-9.04-1.527 2.716-5.79 4.507-5.79 4.507s8.909-6.854.381-12.72c2.418 6.175-1.082 9.2-1.082 9.2s.382-2.1-1.146-3.89c-.123 3.237-2.1 2.84-5.046-.937-2.947-3.775-4.001-6.046-7.74-8.213C34.46 2.054 31.247.665 26.75.665c-1.242 0-2.58.106-4.044.337" mask="url(#3iq2p13jue)"/>
            </g>
            <path fill="#FFC2A1" d="M146.693 35.581c.77 3.513 3.9 7.401 5.973 6.84 2.073-.565 3.133-3.868 2.364-7.38-.77-3.51-2.814-8.012-5.532-7.091-2.04.692-3.573 4.12-2.805 7.631" transform="matrix(-1 0 0 1 344.379 0)"/>
            <g transform="matrix(-1 0 0 1 344.379 0) translate(167 30.758)">
                <mask id="p7nuzzfceh" fill="#fff">
                    <use xlink:href="#vxxl7qj1kf"/>
                </mask>
                <path fill="url(#ejp7fhr98g)" d="M.597.792S-.73 6.512 3.002 6.361C6.734 6.21 6.405 1.427 6.285.098 4.579.198.597.792.597.792" mask="url(#p7nuzzfceh)"/>
            </g>
            <g transform="matrix(-1 0 0 1 344.379 0) translate(167 27.828)">
                <mask id="b925uvkgak" fill="#fff">
                    <use xlink:href="#oza0do1r8i"/>
                </mask>
                <path fill="url(#7zmk2sdw1j)" d="M2.16 2.56C5.859 2.595 7.534.825 5.442.647 5.156.622 4.874.61 4.6.61 1.043.61-1.275 2.53 2.16 2.56" mask="url(#b925uvkgak)"/>
            </g>
            <g>
                <path stroke="#4B2B19" stroke-width=".529" d="M151.348 36.187c1.362-2.41 4.031-1.342 3.846.763" transform="matrix(-1 0 0 1 344.379 0) translate(17.579)"/>
                <path fill="#D3CCB5" d="M154.38 232.94l-19.09-2.543c-.658-.088-1.12-.692-1.033-1.351l.51-3.832c.087-.657.691-1.12 1.349-1.033l19.09 2.544c.657.087 1.12.692 1.031 1.35l-.509 3.832c-.087.658-.69 1.12-1.348 1.032" transform="matrix(-1 0 0 1 344.379 0) translate(17.579)"/>
                <path fill="#E50042" d="M234.337 194.143c39.93-13.917 52.425 24.153 52.425 24.153s-21.146-4.863-37.302 6.312c-18.54 12.826-27.982 23.149-41.904 19.072-2.683-5.864 2.327-41.013 26.781-49.537" transform="matrix(-1 0 0 1 344.379 0) translate(17.579)"/>
                <path fill="#3D3C3C" d="M203.835 125.56c0 3.034-2.457 5.492-5.487 5.492-3.03 0-5.487-2.458-5.487-5.492s2.456-5.492 5.487-5.492c3.03 0 5.487 2.458 5.487 5.492" transform="matrix(-1 0 0 1 344.379 0) translate(17.579)"/>
                <path fill="#2A2A29" d="M201 125.56c0 1.466-1.187 2.654-2.652 2.654-1.464 0-2.652-1.188-2.652-2.654s1.188-2.655 2.652-2.655c1.465 0 2.652 1.189 2.652 2.655" transform="matrix(-1 0 0 1 344.379 0) translate(17.579)"/>
                <path stroke="#D4E5EF" stroke-width=".679" d="M144.654 42.139L135.044 33.14M139.642 57.498L118.976 49.637" transform="matrix(-1 0 0 1 344.379 0) translate(17.579)"/>
                <g transform="matrix(-1 0 0 1 344.379 0) translate(17.579) translate(106.184)">
                    <mask id="f53f9f7j0m" fill="#fff">
                        <use xlink:href="#d2o415ncol"/>
                    </mask>
                    <path fill="#FEC500" d="M4.686 46.063s-14.05-30.247 9.759-42.04C38.252-7.768 50.96 17.204 50.96 17.204L31.076 27.93s.369 3.146.63 7.96c.24 4.435-.53 12.39-7.85 14.896-8.038 2.753-15.943.193-19.17-4.724" mask="url(#f53f9f7j0m)"/>
                </g>
                <path stroke="#4A3A00" stroke-linecap="round" stroke-linejoin="round" stroke-width="1.376" d="M110.87 46.063s4.545 7.626 16.37 5.403c7.883-1.5 10.604-7.613 10.604-13.392 0-5.78-.584-10.143-.584-10.143l19.885-10.728" transform="matrix(-1 0 0 1 344.379 0) translate(17.579)"/>
                <path fill="#CADEF8" d="M159.05 36.122c-.43.897-2.847 3.065-5.96 4.474-3.11 1.41-7.49.735-9.195.364-3.482 4.152-6.028 14.45-4.752 17.22 3.139 2.281 7.967 4.096 11.687 4.481.672.07 1.335-.14 1.839-.592 5.33-4.797 10.895-17.183 10.682-18.877-.222-1.78-3.969-4.775-4.301-7.07" transform="matrix(-1 0 0 1 344.379 0) translate(17.579)"/>
                <path fill="#98C1D6" d="M144.876 42.456c4.552.57 8.458.112 11.879-2.556.924-.72 1.812-1.612 2.67-2.68-.188-.378-.324-.747-.375-1.098-.429.897-2.847 3.065-5.959 4.475-3.112 1.408-7.492.734-9.196.362-3.482 4.153-6.027 14.452-4.751 17.221 3.139 2.28 7.964 4.096 11.685 4.482.664.068 1.319-.137 1.82-.579-2.339-.531-9.777-2.348-12.04-4.408-1.03-3.436 1.717-12.567 4.267-15.22" transform="matrix(-1 0 0 1 344.379 0) translate(17.579)"/>
                <path fill="#DC202F" d="M101.295 211.104c-3.236-8.031-8.577-14.7-15.229-19.639C93.411 219.451 51.45 257.67.911 230.238c-.658 3.095-.826 5.004-.826 5.004 11.302 8.842 85.869 15.084 101.328 11.963 1.559-3.772 6.073-20.736-.118-36.1" transform="matrix(-1 0 0 1 344.379 0) translate(17.579)"/>
                <path fill="#920F29" d="M52.941 181.932c4.036-.326 8.114-.213 12.14.384 4.028.589 7.962 1.758 11.739 3.304.93.42 1.897.766 2.79 1.265l2.71 1.442 2.592 1.645c.44.264.858.56 1.261.876l1.229.924c3.234 2.51 6.211 5.39 8.7 8.67 2.471 3.289 4.54 6.886 6.089 10.713 1.527 3.845 2.444 7.91 2.865 12.007.42 4.1.356 8.232-.083 12.318-.23 2.043-.537 4.078-.976 6.089-.438 2.02-.934 3.997-1.703 6.001l-.18.468-.513.103c-2.205.441-4.364.563-6.53.68-2.162.095-4.32.134-6.472.125-4.307-.008-8.603-.149-12.894-.355-4.291-.205-8.577-.482-12.857-.822-4.28-.339-8.557-.716-12.821-1.215-8.53-.962-17.041-2.127-25.492-3.666-4.219-.8-8.423-1.692-12.573-2.81-2.07-.58-4.138-1.166-6.152-1.926-2-.762-4.027-1.58-5.726-2.91 1.756 1.246 3.803 1.963 5.826 2.627 2.025.682 4.103 1.197 6.18 1.699 4.165.97 8.383 1.71 12.61 2.365 8.449 1.353 16.957 2.333 25.48 3.112 8.524.752 17.058 1.44 25.604 1.774 4.272.175 8.546.285 12.81.262 4.246-.044 8.567-.128 12.63-.812l-.693.571c.696-1.775 1.213-3.733 1.643-5.668.439-1.942.75-3.917.988-5.897.453-3.964.543-7.975.164-11.938-.38-3.962-1.236-7.88-2.674-11.578-1.491-3.683-3.372-7.215-5.71-10.447-2.342-3.23-5.174-6.088-8.275-8.601l-1.18-.926c-.387-.318-.788-.616-1.211-.882l-2.5-1.66-2.622-1.467c-.43-.259-.885-.47-1.341-.675l-1.36-.641c-3.65-1.645-7.49-2.935-11.457-3.654-3.964-.711-8.006-1-12.055-.874" transform="matrix(-1 0 0 1 344.379 0) translate(17.579)"/>
                <path fill="#BD0E36" d="M235.99 193.595c-.547.174-1.095.354-1.653.548-24.454 8.524-29.463 43.673-26.78 49.537 10.663 3.122 18.701-2.207 30.21-10.634-9.639-3.992-16.372-19.838-1.777-39.451" transform="matrix(-1 0 0 1 344.379 0) translate(17.579)"/>
            </g>
        </g>
    </g>
</svg>
